<svg width="595" height="561" viewBox="0 0 595 561" fill="none" xmlns="http://www.w3.org/2000/svg"><path fill-rule="evenodd" clip-rule="evenodd" d="M572.822 233.065c8.552-3.498 12.459-5.095 17.773-2.577 1.365.662 2.508 1.708 3.289 3.008.782 1.301 1.167 2.801 1.111 4.318-.044 1.316-.487 2.588-1.268 3.648-.782 1.06-1.866 1.858-3.111 2.289-1.949.705-6.719 2.015-12.763 3.674l-.832.228c-9.541 2.62-22.48 6.172-33.305 9.767-.579.196-1.064.598-1.364 1.131-.299.532-.392 1.156-.26 1.752 4.272 20.012-4.207 52.176-19.734 74.75-8.244 11.854-17.15 19.115-25.329 20.397-7.112 1.089-12.815-.214-17.086-3.887-4.891-4.251-7.539-11.533-7.411-20.503.149-11.832 5.125-27.594 14.031-44.338 2.158-4.058 1.645-4.891 1.517-4.998-.128-.107-.94-.598-4.955 1.666-14.032 7.902-26.504 9.931-37.055 5.767-3.011-1.154-3.951-.705-5.147 2.263-8.308 20.845-29.623 69.369-47.798 69.369-14.886 0-21.293-27.572-22.339-53.201-.129-3.118-1.068-4.464-1.303-4.528-.235-.064-1.175-.021-3.311 3.332-17.214 27.764-40.92 57.43-55.657 57.43-2.225.094-4.437-.382-6.426-1.384-1.988-1.002-3.688-2.496-4.936-4.34-7.026-10.316-3.524-34.257 10.166-69.262 1.047-2.691 1.794-5.04 1.196-5.702-.598-.662-2.541-.555-5.958.363-5.503 1.447-13.864 3.876-22.818 6.477-9.015 2.618-18.632 5.412-26.539 7.555-.741.198-1.409.606-1.924 1.174-.515.568-.855 1.273-.981 2.029-10.892 64.777-18.196 127.567-26.461 207.871-3.055 29.879-.663 35.09.768 38.187.625 1.147.955 2.431.961 3.737-.129 1.434-.598 2.817-1.367 4.035-.768 1.218-1.815 2.236-3.053 2.97-2.974 2.019-6.488 3.091-10.081 3.076-2.017.005-4.019-.342-5.916-1.025-8.052-2.905-10.059-18.581-6.407-49.378 7.902-66.699 18.025-134.765 30.092-202.297.278-1.58.235-2.456-.192-2.926-.427-.47-1.346-.427-2.926 0l-30.541 8.543c-3.845 1.065-7.698 2.133-11.549 3.199-15.224 4.219-30.418 8.429-45.026 12.435-.552.153-1.065.423-1.504.791-.438.369-.792.827-1.038 1.344-12.515 26.313-23.941 51.279-33.061 72.167-1.954 4.455-3.604 8.517-5.0814 12.153-.1373.338-.2731.672-.4075 1.003l-.2716.665c-5.5073 13.483-8.5439 20.917-16.0881 21.611-1.444.194-2.9136-.016-4.2449-.608-1.3313-.592-2.4719-1.543-3.2942-2.746-3.4599-4.933-2.7978-14.224 1.6445-23.685 10.5505-22.446 21.9126-46.11 33.7662-70.351.811-1.666.982-2.968.555-3.417-.427-.448-1.666-.491-3.46 0-42.1165 11.298-66.656 17.235-77.2065 18.645-13.1134 1.773-18.2605 1.516-24.90266-3.481-4.52775-3.375-6.556691-6.6-5.873257-9.462.683434-2.861 4.079277-4.912 9.845747-5.915 25.73557-4.528 61.85077-12.537 113.66367-25.202.568-.146 1.099-.412 1.556-.78.457-.369.829-.831 1.092-1.356 56.319-113.621 107.47-207.977 133.483-246.4203 12.009-17.5393 22.942-35.7906 32.741-54.6534l2.499-4.61312c2.2-3.972456 8.906-5.89461 15.313-4.271458 3.359.743098 6.346 2.652838 8.43 5.389968 2.084 2.73713 3.131 6.12441 2.953 9.56011 0 8.5661-4.061 21.0459-10.774 41.6712l-.164.5036c-12.48 38.3389-33.352 102.4524-54.201 218.3204-.133.437-.166.898-.095 1.349.07.451.241.881.501 1.256.391.245.834.395 1.294.439.459.045.923-.018 1.354-.182 8.561-2.102 18.254-4.652 27.411-7.061 11.127-2.928 21.462-5.646 28.011-7.099l3.075-.79c5.041-1.346 11.939-3.183 15.549-.406.846.735 1.506 1.66 1.925 2.7.42 1.039.587 2.163.488 3.28 0 4.231-4.069 14.402-8.82 26.277l-.278.697c-7.304 18.132-17.3 42.971-11.063 45.769.514.184 1.061.258 1.605.217.544-.04 1.074-.194 1.555-.452 13.477-5.51 43.27-55.465 46.987-65.204 4.271-11.362 6.407-15.911 14.95-14.779 2.16.35 4.179 1.298 5.828 2.736 1.649 1.438 2.863 3.309 3.505 5.401 2.005 6.203 2.452 12.804 1.303 19.221-1.816 13.584-3.076 43.313 2.306 49.891.222.321.511.59.846.789.335.199.71.323 1.098.364 5.424 0 24.988-33.253 32.975-62.192.158-.594.178-1.216.059-1.819-.118-.603-.372-1.172-.742-1.662-3.887-5.105-5.702-10.06-5.382-14.737.619-9.141 5.403-14.886 12.152-14.715 5.105.15 8.842 1.751 11.149 4.784 3.374 4.421 3.716 11.917 1.025 22.916-.641 2.649-.385 3.909 2.819 4.784 8.458 2.307 20.119-.811 35.624-9.546.29-.161.545-.378.75-.638.206-.261.357-.559.446-.879.086-.314.108-.643.064-.966-.044-.323-.153-.633-.32-.913-1.146-1.735-1.834-3.731-2.002-5.803-.168-2.073.19-4.154 1.041-6.05 3.161-6.877 12.878-11.982 20.844-13.477 11.939-2.221 21.358-.277 27.765 5.788.319.302.713.512 1.141.61.429.098.875.079 1.294-.055l.527-.169c6.615-2.12 15.528-4.976 24.098-8.096 4.698-1.709 8.521-3.268 11.575-4.528l.018-.007zM497.349 338.94c1.989-.422 3.758-1.553 4.976-3.182 10.316-10.913 26.355-47.691 25.202-69.069.003-.409-.086-.813-.26-1.182-.174-.37-.428-.696-.744-.954-.346-.215-.746-.326-1.153-.32-.394.003-.784.076-1.154.213l-3.972 1.346c-.587.18-1.084.577-1.388 1.11-13.22 22.895-30.349 61.018-25.095 70.116.352.63.877 1.145 1.513 1.485.636.341 1.356.493 2.075.437zm-345.412-34.278c.449.577 1.623.662 3.311.235 12.03-2.956 23.895-5.954 35.571-8.904 2.834-.716 5.656-1.429 8.467-2.138l33.126-8.308c.74-.193 1.41-.593 1.932-1.153.522-.559.874-1.256 1.015-2.008 16.338-87.8 32.677-156.741 43.355-199.1352 2.05-8.0517 1.687-11.4048.748-11.7893-.94-.3844-3.61 1.6446-8.009 8.6925-31.63 50.382-76.139 133.141-119.067 221.24-.748 1.538-.897 2.691-.449 3.268z" fill="#000"/><path d="M341.417 226.967c-.284.021-.57.021-.854 0-1.018.018-2.024-.229-2.918-.715-.895-.487-1.648-1.197-2.187-2.061-3.545-5.446-1.922-18.41 3.482-27.765 3.716-6.45 8.457-9.867 13.412-9.589 3.823.256 6.386 1.687 7.625 4.271 3.588 7.497-5.318 22.49-7.219 25.117-.641.875-1.218 1.815-1.816 2.797-2.242 3.674-4.549 7.39-9.525 7.945z" fill="#000"/></svg>